<svg width="36" height="10" viewBox="0 0 36 10" fill="none" xmlns="http://www.w3.org/2000/svg">
<path d="M26.7396 3.63387H30.7647C29.3855 5.43715 28.2173 7.71858 27.6122 9.7814H33.4105V3.63387H36V0.218575H26.7396V3.63387ZM20.2377 9.7814H26.9085V6.3661H22.8835C24.2627 4.56283 25.4308 2.2814 26.0359 0.218575H20.2376L20.2377 9.7814ZM12.9758 4.99998C12.9758 3.59288 13.4543 2.86884 14.3972 2.86884C15.3401 2.86884 15.8186 3.59288 15.8186 4.99998C15.8186 6.40708 15.3401 7.13112 14.3972 7.13112C13.4543 7.13112 12.9758 6.40708 12.9758 4.99998ZM3.54651 4.12565V2.459H4.37685C4.92571 2.459 5.20719 2.74589 5.20719 3.29233C5.20719 3.83877 4.92571 4.12565 4.37685 4.12565H3.54651ZM3.54651 7.54095V5.76499H4.43315C5.02425 5.76499 5.31979 6.06554 5.31979 6.65297C5.31979 7.24041 5.02425 7.54095 4.43315 7.54095H3.54651ZM0 9.7814H5.68569C7.61377 9.7814 8.92259 8.66119 8.92259 7.02185C8.92259 5.99727 8.35966 5.28689 7.26192 4.83606C8.21891 4.39891 8.66928 3.68853 8.66928 2.78689C8.66928 1.25684 7.44488 0.218575 5.64348 0.218575H0V9.7814ZM14.3972 9.99998C17.4511 9.99998 19.4777 8.00544 19.4777 4.99998C19.4777 1.99451 17.4511 0 14.3972 0C11.3432 0 9.31665 1.99454 9.31665 5C9.31665 8.00546 11.3432 9.99998 14.3972 9.99998Z" fill="#000000"/>
</svg>
